# xmcd
#
# Track frame offsets: 
#        150
#        15299
#        37209
#        67892
#        93044
#        117997
#        138043
#        150748
#        166488
#        185226
#        204420
#        221854
#        237025
#
# Disc length: 3995 seconds
#
# Revision: 2
# Processed by: cddbd v1.5.2PL0 Copyright (c) Steve Scherf et al.
# Submitted via: ExactAudioCopyFreeDBPlugin 1.0
#
DISCID=ac0f990d
DTITLE=Dan Penn - Blue Night Lounge (Demo Series 1)
DYEAR=2000
DGENRE=Soul
TTITLE0=Where You Gettin It
TTITLE1=Lookin' for Love
TTITLE2=Superliner
TTITLE3=Hallelujah Louisiana
TTITLE4=Funky Folks
TTITLE5=You Don't Miss What You Never Had
TTITLE6=Goodbye London
TTITLE7=Not Enough Time to Change
TTITLE8=Down Around Birmingham
TTITLE9=Lemonade Man
TTITLE10=A Memphis Melody
TTITLE11=Holding on to God
TTITLE12=Rosemound Rain
EXTD=
EXTT0=
EXTT1=
EXTT2=
EXTT3=
EXTT4=
EXTT5=
EXTT6=
EXTT7=
EXTT8=
EXTT9=
EXTT10=
EXTT11=
EXTT12=
PLAYORDER=
